<svg xmlns="http://www.w3.org/2000/svg" fill="none" viewBox="51.8 190.85 777.31 651.2">
<path fill-rule="evenodd" clip-rule="evenodd" d="M720.972 735.748C663.1 773.376 584.926 731.247 518.586 750.337C456.285 768.264 416.4 841.829 351.568 842.048C283.628 842.277 222.94 798.181 173.568 751.501C121.994 702.739 82.2765 641.672 66.4598 572.487C50.1829 501.288 37.9896 415.455 83.729 358.529C130.019 300.917 220.157 314.572 290.896 293.158C337.924 278.922 382.53 267.034 429.838 253.756C494.805 235.522 563.231 165.478 620.896 200.537C678.742 235.705 627.899 336.87 662.375 395.129C701.534 461.304 814.385 473.763 827.42 549.538C839.794 621.464 782.153 695.97 720.972 735.748Z" fill="#E4ECD8"/>
</svg>