<svg xmlns="http://www.w3.org/2000/svg" fill="none" viewBox="57.77 88.31 766.55 719.71">
<path fill-rule="evenodd" clip-rule="evenodd" d="M532.65 104.407C581.399 127.51 592.237 193.254 634.888 226.286C689.823 268.83 786.017 260.348 815.341 323.34C843.085 382.937 800.633 454.413 767.525 511.206C737.988 561.875 675.777 581.134 638.612 626.506C593.18 681.97 595.844 788.071 526.338 805.652C457.615 823.035 404.336 740.312 345.604 700.62C302.036 671.175 268.12 633.351 225.604 602.406C170.858 562.559 72.641 558.475 59.1474 492.121C45.5464 425.239 136.192 383.314 168.864 323.391C193.995 277.299 193.901 219.805 228.94 180.712C265.48 139.943 315.79 113.562 368.887 100.222C422.765 86.6858 482.45 80.6165 532.65 104.407Z" fill="#E4ECD8"/>
</svg>