<svg xmlns="http://www.w3.org/2000/svg" fill="none" viewBox="128.13 176.99 823.21 813.05">
<path fill-rule="evenodd" clip-rule="evenodd" d="M309.257 765.284C282.292 711.851 235.241 673.304 209.523 619.29C176.417 549.761 101.918 469.684 137.558 404.676C175.463 335.537 296.234 385.434 361.491 342.099C418.647 304.144 410.828 184.566 479.945 177.311C549.72 169.987 577.62 289.644 645.486 312.287C722.562 338.003 815.03 262.972 881.482 311.28C942.911 355.935 931.591 451.78 940.12 526.474C948.277 597.912 964.991 676.1 930.058 736.707C895.729 796.266 822.823 818.969 758.196 842.104C706.274 860.691 645.925 836.375 594.73 856.746C519.384 886.727 474.371 1012.11 394.917 986.655C319.084 962.359 345.608 837.313 309.257 765.284Z" fill="#FFAFBD"/>
</svg>