<svg width="1442" height="482" viewBox="0 0 1442 482" fill="none" xmlns="http://www.w3.org/2000/svg">
<ellipse cx="28.445" cy="14.2393" rx="15.3756" ry="14.2393" fill="#96BB70"/>
<ellipse cx="274.456" cy="186.535" rx="15.3756" ry="14.2393" fill="#D51F43"/>
<ellipse cx="518.16" cy="39.1578" rx="15.3756" ry="14.2393" fill="#C2DAF2"/>
<ellipse cx="680.373" cy="175.143" rx="15.3756" ry="14.2393" fill="#C2DAF2"/>
<ellipse cx="860.268" cy="25.6309" rx="15.3756" ry="14.2393" fill="#E9C441"/>
<ellipse cx="1037.86" cy="97.5396" rx="15.3756" ry="14.2393" fill="#D51F43"/>
<ellipse cx="305.299" cy="353.148" rx="15.3756" ry="14.2393" fill="#E9C441"/>
<ellipse cx="15.3756" cy="306.856" rx="15.3756" ry="14.2393" fill="#96BB70"/>
<ellipse cx="1183.99" cy="415.986" rx="15.3756" ry="14.2393" fill="#D51F43"/>
<ellipse cx="505.09" cy="331.776" rx="15.3756" ry="14.2393" fill="#C2DAF2"/>
<ellipse cx="667.303" cy="467.76" rx="15.3756" ry="14.2393" fill="#C2DAF2"/>
<ellipse cx="948.692" cy="272.079" rx="15.3756" ry="14.2393" fill="#E9C441"/>
<ellipse cx="929.46" cy="432.875" rx="15.3756" ry="14.2393" fill="#96BB70"/>
<ellipse cx="1341.38" cy="147.239" rx="15.3756" ry="14.2393" fill="#96BB70"/>
<ellipse cx="1426.22" cy="462.705" rx="15.3756" ry="14.2393" fill="#E9C441"/>
</svg>
