<svg width="66" height="66" viewBox="0 0 66 66" fill="none" xmlns="http://www.w3.org/2000/svg">
<path d="M33 0C24.0291 0 22.9111 0.0433179 19.4002 0.191836C15.875 0.365108 13.4904 0.911739 11.3864 1.72859C9.18435 2.55992 7.19008 3.86152 5.54263 5.54263C3.85683 7.18623 2.55451 9.18161 1.72859 11.3864C0.911739 13.4904 0.365108 15.875 0.191836 19.4002C0.0330041 22.9131 0 24.0291 0 33C0 41.9709 0.0433179 43.0889 0.191836 46.5998C0.365108 50.1147 0.911739 52.5096 1.72859 54.6136C2.55992 56.8156 3.86152 58.8099 5.54263 60.4574C7.18623 62.1432 9.18161 63.4455 11.3864 64.2714C13.4904 65.0779 15.8853 65.6349 19.4002 65.8082C22.9131 65.967 24.0291 66 33 66C41.9709 66 43.089 65.9567 46.5998 65.8082C50.1147 65.6349 52.5096 65.0759 54.6136 64.2714C56.8157 63.4401 58.8099 62.1385 60.4574 60.4574C62.1453 58.8156 63.448 56.8197 64.2714 54.6136C65.0779 52.5096 65.6349 50.1147 65.8082 46.5998C65.967 43.0869 66 41.9709 66 33C66 24.0291 65.9567 22.911 65.8082 19.4002C65.6349 15.8853 65.0759 13.4781 64.2714 11.3864C63.4401 9.18435 62.1385 7.19008 60.4574 5.54263C58.8156 3.85465 56.8197 2.552 54.6136 1.72859C52.5096 0.911739 50.1147 0.365108 46.5998 0.191836C43.0869 0.0330041 41.9709 0 33 0ZM33 5.94074C41.81 5.94074 42.862 5.98406 46.344 6.13258C49.5557 6.28316 51.3049 6.81948 52.4662 7.27328C53.902 7.80325 55.2014 8.64677 56.27 9.7424C57.3637 10.8064 58.2041 12.1029 58.7288 13.5358C59.1826 14.6971 59.7189 16.4464 59.8695 19.6581C60.018 23.14 60.0613 24.1941 60.0613 33.0021C60.0613 41.81 60.018 42.8641 59.8571 46.346C59.6838 49.5578 59.1475 51.307 58.6958 52.4683C58.0708 54.0174 57.3735 55.1004 56.2225 56.272C55.1504 57.3608 53.8518 58.2003 52.4188 58.7308C51.2719 59.1846 49.4979 59.721 46.2738 59.8715C42.7733 60.0201 41.742 60.0634 32.9092 60.0634C24.0765 60.0634 23.0472 60.0201 19.5426 59.8592C16.3309 59.6859 14.5589 59.1496 13.3976 58.6978C11.8299 58.0728 10.7552 57.3756 9.6042 56.2246C8.44287 55.0633 7.7044 53.9576 7.13508 52.4209C6.67302 51.274 6.14496 49.5 5.97375 46.2759C5.85617 42.8167 5.80047 41.744 5.80047 32.9526C5.80047 24.1652 5.85617 23.0905 5.97375 19.5879C6.14496 16.3639 6.67302 14.594 7.13508 13.443C7.7044 11.8732 8.44493 10.8006 9.6042 9.63927C10.7532 8.49031 11.8299 7.74772 13.3976 7.16602C14.5589 6.71428 16.2875 6.17796 19.5116 6.01706C23.0121 5.89124 24.0435 5.84586 32.8639 5.84586L33 5.94074ZM33 16.0627C30.775 16.0619 28.5716 16.4995 26.5158 17.3506C24.46 18.2017 22.5921 19.4496 21.0188 21.0229C19.4455 22.5962 18.1976 24.4642 17.3465 26.52C16.4954 28.5758 16.0578 30.7791 16.0586 33.0041C16.0578 35.2291 16.4954 37.4325 17.3465 39.4883C18.1976 41.5441 19.4455 43.412 21.0188 44.9853C22.5921 46.5587 24.46 47.8065 26.5158 48.6576C28.5716 49.5087 30.775 49.9464 33 49.9456C35.225 49.9464 37.4284 49.5087 39.4842 48.6576C41.54 47.8065 43.4079 46.5587 44.9812 44.9853C46.5545 43.412 47.8024 41.5441 48.6535 39.4883C49.5046 37.4325 49.9422 35.2291 49.9414 33.0041C49.9422 30.7791 49.5046 28.5758 48.6535 26.52C47.8024 24.4642 46.5545 22.5962 44.9812 21.0229C43.4079 19.4496 41.54 18.2017 39.4842 17.3506C37.4284 16.4995 35.225 16.0619 33 16.0627V16.0627ZM33 44.0048C26.919 44.0048 21.9993 39.0851 21.9993 33.0041C21.9993 26.9231 26.919 22.0034 33 22.0034C39.081 22.0034 44.0007 26.9231 44.0007 33.0041C44.0007 39.0851 39.081 44.0048 33 44.0048ZM54.5847 15.3861C54.5836 16.4374 54.1652 17.4453 53.4214 18.1883C52.6777 18.9313 51.6693 19.3487 50.618 19.3487C50.0982 19.3487 49.5834 19.2463 49.1032 19.0473C48.6229 18.8484 48.1866 18.5568 47.819 18.1893C47.4514 17.8217 47.1598 17.3853 46.9609 16.9051C46.762 16.4248 46.6596 15.9101 46.6596 15.3902C46.6596 14.8704 46.762 14.3557 46.9609 13.8754C47.1598 13.3952 47.4514 12.9588 47.819 12.5912C48.1866 12.2236 48.6229 11.9321 49.1032 11.7331C49.5834 11.5342 50.0982 11.4318 50.618 11.4318C52.7984 11.4318 54.5847 13.2058 54.5847 15.3861V15.3861Z" fill="white"/>
</svg>
